<svg width="12" height="12" viewBox="0 0 12 12" fill="none" xmlns="http://www.w3.org/2000/svg">
<path fill-rule="evenodd" clip-rule="evenodd" d="M2 0C0.895431 0 0 0.895431 0 2V10C0 11.1046 0.895431 12 2 12H10C11.1046 12 12 11.1046 12 10V2C12 0.895431 11.1046 0 10 0H2ZM6 1C6.55228 1 7 1.44772 7 2V5H10C10.5523 5 11 5.44772 11 6C11 6.55228 10.5523 7 10 7H7V10C7 10.5523 6.55228 11 6 11C5.44772 11 5 10.5523 5 10V7H2C1.44771 7 1 6.55228 1 6C1 5.44771 1.44771 5 2 5L5 5V2C5 1.44772 5.44772 1 6 1Z" fill="#8B8C93"/>
</svg>
