<svg width="25" height="19" viewBox="0 0 25 19" fill="none" xmlns="http://www.w3.org/2000/svg">
<path d="M20.3125 17.297C20.3125 18.1599 19.6128 18.8596 18.7499 18.8596C17.8869 18.8596 17.1875 18.1599 17.1875 17.297C17.1875 16.434 17.8869 15.7346 18.7499 15.7346C19.6128 15.7346 20.3125 16.434 20.3125 17.297Z" fill="#8B8C93"/>
<path d="M7.8125 17.297C7.8125 18.1599 7.11307 18.8596 6.25014 18.8596C5.38721 18.8596 4.6875 18.1599 4.6875 17.297C4.6875 16.434 5.38721 15.7346 6.25014 15.7346C7.11307 15.7346 7.8125 16.434 7.8125 17.297Z" fill="#8B8C93"/>
<path d="M14.0625 17.297C14.0625 18.1599 13.363 18.8596 12.5 18.8596C11.637 18.8596 10.9375 18.1599 10.9375 17.297C10.9375 16.434 11.637 15.7346 12.5 15.7346C13.363 15.7346 14.0625 16.434 14.0625 17.297Z" fill="#8B8C93"/>
<path d="M21.8623 1.34422C21.4184 4.34271 19.5433 6.94412 16.8274 8.33003C14.1116 9.71601 10.8889 9.71601 8.17323 8.33003C5.45742 6.94405 3.5826 4.34271 3.13841 1.34422C3.05893 0.790426 2.68793 0.321221 2.16484 0.112723C1.64203 -0.0955304 1.04688 -0.0114611 0.603537 0.333805C0.160197 0.679072 -0.0636645 1.23257 0.0158148 1.78638C0.45337 4.76251 1.95555 7.48312 4.2478 9.44995C6.54034 11.4173 9.46962 12.5 12.5 12.5C15.5304 12.5 18.4599 11.4173 20.7522 9.44994C23.0445 7.4829 24.5469 4.76223 24.9842 1.78637C25.0637 1.23258 24.8398 0.679041 24.3965 0.333803C23.9531 -0.0114345 23.358 -0.0955256 22.8352 0.112722C22.3123 0.321248 21.9411 0.790425 21.8616 1.34422L21.8623 1.34422Z" fill="#8B8C93"/>
</svg>
