<svg width="25" height="25" viewBox="0 0 25 25" fill="none" xmlns="http://www.w3.org/2000/svg">
<path d="M20.3125 23.4374C20.3125 24.3003 19.6128 25 18.7499 25C17.8869 25 17.1875 24.3003 17.1875 23.4374C17.1875 22.5744 17.8869 21.875 18.7499 21.875C19.6128 21.875 20.3125 22.5744 20.3125 23.4374Z" fill="#8B8C93"/>
<path d="M7.8125 23.4374C7.8125 24.3003 7.11307 25 6.25014 25C5.38721 25 4.6875 24.3003 4.6875 23.4374C4.6875 22.5744 5.38721 21.875 6.25014 21.875C7.11307 21.875 7.8125 22.5744 7.8125 23.4374Z" fill="#8B8C93"/>
<path d="M14.0625 23.4374C14.0625 24.3003 13.363 25 12.5 25C11.637 25 10.9375 24.3003 10.9375 23.4374C10.9375 22.5744 11.637 21.875 12.5 21.875C13.363 21.875 14.0625 22.5744 14.0625 23.4374Z" fill="#8B8C93"/>
<path d="M12.5 6.25C10.8425 6.25 9.25262 6.90857 8.08076 8.08076C6.90854 9.25269 6.25 10.8426 6.25 12.5C6.25 14.1574 6.90857 15.7474 8.08076 16.9192C9.25269 18.0915 10.8426 18.75 12.5 18.75C14.1574 18.75 15.7474 18.0914 16.9192 16.9192C18.0915 15.7473 18.75 14.1574 18.75 12.5C18.75 10.8426 18.0914 9.25262 16.9192 8.08076C15.7473 6.90854 14.1574 6.25 12.5 6.25ZM12.5 15.6249V15.6252C11.6711 15.6252 10.8763 15.2957 10.2902 14.7099C9.70438 14.1238 9.37497 13.329 9.37497 12.5001C9.37497 11.6712 9.70439 10.8765 10.2902 10.2903C10.8763 9.70452 11.6711 9.3751 12.5 9.3751C13.3289 9.3751 14.1237 9.70452 14.7098 10.2903C15.2956 10.8764 15.625 11.6712 15.625 12.5001C15.625 13.329 15.2956 14.1238 14.7098 14.7099C14.1237 15.2957 13.3289 15.6252 12.5 15.6252V15.6249Z" fill="#8B8C93"/>
<path d="M3.13774 11.1558C3.58163 8.15729 5.45675 5.55589 8.17256 4.16997C10.8884 2.78399 14.1111 2.78399 16.8268 4.16997C19.5426 5.55596 21.4174 8.15729 21.8616 11.1558C21.9411 11.7096 22.3121 12.1788 22.8352 12.3873C23.358 12.5955 23.9531 12.5115 24.3965 12.1662C24.8398 11.8209 25.0637 11.2674 24.9842 10.7136C24.5466 7.7375 23.0445 5.01689 20.7522 3.05006C18.4597 1.08274 15.5304 0 12.5 0C9.46962 0 6.54005 1.08274 4.2478 3.05006C1.95548 5.0171 0.453099 7.73777 0.0158125 10.7136C-0.063668 11.2674 0.1602 11.821 0.603534 12.1662C1.04687 12.5114 1.64201 12.5955 2.16484 12.3873C2.68766 12.1788 3.05892 11.7096 3.1384 11.1558H3.13774Z" fill="#8B8C93"/>
</svg>
